<svg width="460" height="460" viewBox="0 0 460 460" fill="none" xmlns="http://www.w3.org/2000/svg">
<rect width="460" height="460" rx="16" fill="#E8ECF2"/>
<mask id="mask0_2104_181" style="mask-type:alpha" maskUnits="userSpaceOnUse" x="91" y="123" width="278" height="213">
<rect x="91.7762" y="123.114" width="276.448" height="212.652" fill="#D9D9D9"/>
</mask>
<g mask="url(#mask0_2104_181)">
<path fill-rule="evenodd" clip-rule="evenodd" d="M196.979 203.812L173.681 227.111C164.59 236.201 164.59 250.94 173.681 260.03L201.729 288.078C210.819 297.169 225.558 297.169 234.648 288.078L293.012 229.714L232.045 168.747L207.898 192.893L189.512 174.507C186.497 171.492 181.608 171.492 178.593 174.507C175.578 177.523 175.578 182.411 178.593 185.426L196.979 203.812ZM207.952 214.785L184.654 238.084C181.623 241.114 181.623 246.027 184.654 249.057L212.702 277.105C215.732 280.135 220.645 280.135 223.675 277.105L271.066 229.714L232.045 190.693L218.871 203.866L230.82 215.815L219.901 226.734L207.952 214.785Z" fill="#0D1117"/>
<path opacity="0.22" d="M257.176 243.604L223.675 277.105C220.645 280.135 215.732 280.135 212.702 277.105L184.654 249.057C183.147 247.55 182.39 245.579 182.381 243.604L257.176 243.604Z" fill="#0D1117"/>
<path opacity="0.22" d="M302.731 269.875C302.731 275.123 298.281 279.378 292.791 279.378C287.301 279.378 282.851 275.123 282.851 269.875C282.851 262.747 292.791 249.68 292.791 249.68C292.791 249.68 302.731 262.747 302.731 269.875Z" fill="#0D1117"/>
<path d="M144.274 335.716C133.786 335.716 125.265 332.802 118.71 326.976C112.3 321.295 109.096 312.773 109.096 301.411C109.096 296.458 109.46 291.943 110.188 287.864C110.917 283.785 111.645 279.707 112.373 275.628C113.247 271.404 113.684 266.597 113.684 261.207C113.684 256.109 112.082 251.447 108.877 247.223C105.818 242.998 100.064 240.158 91.6157 238.701V220.129C100.064 218.672 105.818 215.904 108.877 211.826C112.082 207.601 113.684 202.867 113.684 197.623C113.684 192.233 113.247 187.499 112.373 183.421C111.645 179.196 110.917 175.045 110.188 170.966C109.46 166.887 109.096 162.372 109.096 157.419C109.096 146.057 112.3 137.535 118.71 131.854C125.265 126.028 133.786 123.114 144.274 123.114H156.948V142.561H148.426C142.745 142.561 138.448 143.945 135.534 146.712C132.767 149.334 131.383 153.632 131.383 159.604C131.383 163.683 131.747 167.616 132.475 171.403C133.204 175.19 133.932 179.269 134.66 183.639C135.389 187.863 135.753 192.816 135.753 198.497C135.753 206.072 133.859 212.627 130.072 218.162C126.285 223.698 120.167 227.412 111.718 229.306V229.743C120.167 231.491 126.285 235.132 130.072 240.668C133.859 246.203 135.753 252.831 135.753 260.551C135.753 266.087 135.389 271.039 134.66 275.409C133.932 279.634 133.204 283.712 132.475 287.646C131.747 291.433 131.383 295.293 131.383 299.226C131.383 305.198 132.767 309.496 135.534 312.118C138.448 314.885 142.745 316.269 148.426 316.269H156.948V335.716H144.274Z" fill="#0D1117"/>
<path d="M315.404 335.716C325.892 335.716 334.414 332.802 340.969 326.976C347.378 321.295 350.583 312.773 350.583 301.411C350.583 296.458 350.218 291.943 349.49 287.864C348.762 283.785 348.033 279.707 347.305 275.628C346.431 271.404 345.994 266.597 345.994 261.207C345.994 256.109 347.596 251.447 350.801 247.223C353.86 242.998 359.614 240.158 368.063 238.701V220.129C359.614 218.672 353.86 215.904 350.801 211.826C347.596 207.601 345.994 202.867 345.994 197.623C345.994 192.233 346.431 187.499 347.305 183.421C348.033 179.196 348.762 175.045 349.49 170.966C350.218 166.887 350.583 162.372 350.583 157.419C350.583 146.057 347.378 137.535 340.969 131.854C334.414 126.028 325.892 123.114 315.404 123.114H302.731V142.561H311.252C316.933 142.561 321.231 143.945 324.144 146.712C326.912 149.334 328.295 153.632 328.295 159.604C328.295 163.683 327.931 167.616 327.203 171.403C326.475 175.19 325.746 179.269 325.018 183.639C324.29 187.863 323.925 192.816 323.925 198.497C323.925 206.072 325.819 212.627 329.606 218.162C333.394 223.698 339.512 227.412 347.961 229.306V229.743C339.512 231.491 333.394 235.132 329.606 240.668C325.819 246.203 323.925 252.831 323.925 260.551C323.925 266.087 324.29 271.039 325.018 275.409C325.746 279.634 326.475 283.712 327.203 287.646C327.931 291.433 328.295 295.293 328.295 299.226C328.295 305.198 326.912 309.496 324.144 312.118C321.231 314.885 316.933 316.269 311.252 316.269H302.731V335.716H315.404Z" fill="#0D1117"/>
</g>
</svg>
