<svg width="801" height="161" viewBox="0 0 801 161" fill="none" xmlns="http://www.w3.org/2000/svg">
<rect x="0.59436" y="0.128418" width="800" height="160" rx="16" fill="#0D1117"/>
<path fill-rule="evenodd" clip-rule="evenodd" d="M270.345 70.5239L261.73 79.1387C258.369 82.5 258.369 87.9496 261.73 91.3109L272.102 101.682C275.463 105.043 280.912 105.043 284.274 101.682L305.854 80.1013L283.311 57.5581L274.383 66.4865L267.584 59.6881C266.469 58.5732 264.662 58.5732 263.547 59.6881C262.432 60.803 262.432 62.6106 263.547 63.7255L270.345 70.5239ZM274.403 74.5813L265.788 83.1961C264.667 84.3165 264.667 86.1331 265.788 87.2535L276.159 97.6246C277.279 98.745 279.096 98.745 280.216 97.6246L297.74 80.1013L283.311 65.6728L278.44 70.5439L282.858 74.962L278.821 78.9994L274.403 74.5813Z" fill="#E8ECF2"/>
<path opacity="0.22" d="M292.603 85.2373L280.216 97.6245C279.096 98.7449 277.279 98.7449 276.159 97.6245L265.788 87.2534C265.231 86.6964 264.951 85.9673 264.948 85.2373L292.603 85.2373Z" fill="#E8ECF2"/>
<path opacity="0.22" d="M309.448 94.9509C309.448 96.8916 307.802 98.4648 305.772 98.4648C303.743 98.4648 302.097 96.8916 302.097 94.9509C302.097 92.3155 305.772 87.4839 305.772 87.4839C305.772 87.4839 309.448 92.3155 309.448 94.9509Z" fill="#E8ECF2"/>
<path d="M354.326 98.7355C352.12 98.7355 350.182 98.3847 348.511 97.6829C346.841 96.9478 345.504 95.9453 344.501 94.6755C343.499 93.4057 342.897 91.9354 342.697 90.2646H349.163C349.363 91.2336 349.898 92.069 350.767 92.7708C351.669 93.4391 352.822 93.7733 354.225 93.7733C355.629 93.7733 356.648 93.4892 357.283 92.9212C357.951 92.3531 358.285 91.7015 358.285 90.9663C358.285 89.897 357.818 89.1786 356.882 88.811C355.946 88.41 354.643 88.0257 352.972 87.6581C351.903 87.4242 350.817 87.1402 349.714 86.806C348.612 86.4719 347.592 86.0542 346.657 85.5529C345.754 85.0183 345.019 84.35 344.451 83.548C343.883 82.7126 343.599 81.6934 343.599 80.4904C343.599 78.285 344.468 76.4304 346.206 74.9267C347.977 73.423 350.449 72.6711 353.624 72.6711C356.565 72.6711 358.904 73.3561 360.641 74.7262C362.412 76.0962 363.465 77.9842 363.799 80.3902H357.734C357.367 78.5523 355.98 77.6334 353.574 77.6334C352.371 77.6334 351.435 77.8673 350.767 78.3351C350.132 78.8029 349.815 79.3877 349.815 80.0894C349.815 80.8246 350.299 81.4094 351.268 81.8438C352.237 82.2782 353.524 82.6792 355.128 83.0467C356.865 83.4477 358.453 83.8989 359.889 84.4001C361.36 84.8679 362.529 85.5864 363.398 86.5554C364.267 87.4911 364.701 88.8444 364.701 90.6155C364.735 92.1526 364.334 93.5393 363.498 94.7757C362.663 96.0121 361.46 96.9812 359.889 97.6829C358.319 98.3847 356.464 98.7355 354.326 98.7355ZM370.385 98.134V62.0448H376.801V77.082C377.636 75.712 378.756 74.6426 380.159 73.8741C381.596 73.0721 383.233 72.6711 385.071 72.6711C388.145 72.6711 390.518 73.6402 392.189 75.5783C393.893 77.5164 394.745 80.3568 394.745 84.0994V98.134H388.379V84.7008C388.379 82.5622 387.945 80.9248 387.076 79.7887C386.241 78.6526 384.904 78.0845 383.066 78.0845C381.262 78.0845 379.758 78.7194 378.555 79.9892C377.386 81.259 376.801 83.03 376.801 85.3023V98.134H370.385ZM404.339 69.4131C403.169 69.4131 402.2 69.0622 401.432 68.3605C400.696 67.6587 400.329 66.7732 400.329 65.7039C400.329 64.6346 400.696 63.7658 401.432 63.0974C402.2 62.3957 403.169 62.0448 404.339 62.0448C405.508 62.0448 406.461 62.3957 407.196 63.0974C407.964 63.7658 408.349 64.6346 408.349 65.7039C408.349 66.7732 407.964 67.6587 407.196 68.3605C406.461 69.0622 405.508 69.4131 404.339 69.4131ZM401.131 98.134V73.2726H407.547V98.134H401.131ZM415.396 98.134V78.6358H411.988V73.2726H415.396V70.3654C415.396 67.358 416.148 65.2194 417.652 63.9496C419.189 62.6797 421.261 62.0448 423.867 62.0448H426.624V67.5084H424.87C423.767 67.5084 422.982 67.7256 422.514 68.16C422.046 68.5944 421.812 69.3295 421.812 70.3654V73.2726H427.175V78.6358H421.812V98.134H415.396ZM443.334 98.134C440.727 98.134 438.639 97.4991 437.068 96.2293C435.498 94.9595 434.713 92.7039 434.713 89.4626V78.6358H430.452V73.2726H434.713L435.464 66.6061H441.128V73.2726H447.845V78.6358H441.128V89.5127C441.128 90.7157 441.379 91.5511 441.88 92.0189C442.415 92.4533 443.317 92.6705 444.587 92.6705H447.695V98.134H443.334ZM463.88 90.7157C462.677 90.7157 461.557 90.582 460.521 90.3147L458.667 92.1693C459.235 92.47 460.003 92.7207 460.972 92.9212C461.941 93.1216 463.512 93.3221 465.684 93.5226C468.992 93.8234 471.398 94.6087 472.902 95.8785C474.406 97.1483 475.157 98.9026 475.157 101.141C475.157 102.612 474.756 103.999 473.955 105.302C473.153 106.638 471.916 107.708 470.245 108.51C468.575 109.345 466.436 109.763 463.829 109.763C460.287 109.763 457.43 109.094 455.258 107.758C453.086 106.455 452 104.483 452 101.843C452 99.6043 453.086 97.6662 455.258 96.0288C454.59 95.7281 454.005 95.4106 453.504 95.0765C453.036 94.7423 452.618 94.3915 452.251 94.0239V92.871L456.612 88.2596C454.674 86.5554 453.704 84.3667 453.704 81.6934C453.704 80.0226 454.105 78.5022 454.907 77.1321C455.743 75.7621 456.912 74.6761 458.416 73.8741C459.92 73.0721 461.741 72.6711 463.88 72.6711C465.283 72.6711 466.586 72.8716 467.789 73.2726H477.213V77.1823L472.952 77.483C473.62 78.7528 473.955 80.1563 473.955 81.6934C473.955 83.3642 473.554 84.8846 472.752 86.2547C471.95 87.6247 470.78 88.7107 469.243 89.5127C467.739 90.3147 465.951 90.7157 463.88 90.7157ZM463.88 85.8036C465.183 85.8036 466.252 85.4527 467.088 84.751C467.956 84.0492 468.391 83.0467 468.391 81.7435C468.391 80.4403 467.956 79.4378 467.088 78.7361C466.252 78.0344 465.183 77.6835 463.88 77.6835C462.51 77.6835 461.407 78.0344 460.571 78.7361C459.736 79.4378 459.318 80.4403 459.318 81.7435C459.318 83.0467 459.736 84.0492 460.571 84.751C461.407 85.4527 462.51 85.8036 463.88 85.8036ZM457.865 101.192C457.865 102.428 458.433 103.347 459.569 103.948C460.739 104.583 462.159 104.901 463.829 104.901C465.433 104.901 466.737 104.567 467.739 103.898C468.742 103.263 469.243 102.395 469.243 101.292C469.243 100.39 468.909 99.6377 468.24 99.0363C467.605 98.4348 466.319 98.0672 464.381 97.9335C463.011 97.8333 461.741 97.6829 460.571 97.4824C459.602 98.0171 458.901 98.6019 458.466 99.2368C458.065 99.8717 457.865 100.523 457.865 101.192ZM493.971 98.7355C491.465 98.7355 489.242 98.2009 487.304 97.1316C485.366 96.0622 483.846 94.5585 482.743 92.6204C481.64 90.6823 481.089 88.4434 481.089 85.9038C481.089 83.3308 481.624 81.0418 482.693 79.0368C483.796 77.0319 485.299 75.478 487.204 74.3753C489.142 73.2392 491.414 72.6711 494.021 72.6711C496.46 72.6711 498.616 73.2058 500.487 74.2751C502.358 75.3444 503.812 76.8147 504.848 78.686C505.917 80.5238 506.452 82.5789 506.452 84.8512C506.452 85.2188 506.435 85.6031 506.401 86.0041C506.401 86.405 506.385 86.8227 506.351 87.2572H487.455C487.588 89.1953 488.257 90.7157 489.46 91.8184C490.696 92.9212 492.183 93.4725 493.921 93.4725C495.224 93.4725 496.31 93.1885 497.179 92.6204C498.081 92.0189 498.749 91.2504 499.184 90.3147H505.7C505.232 91.8853 504.447 93.3221 503.344 94.6254C502.275 95.8952 500.938 96.8976 499.334 97.6328C497.763 98.3679 495.976 98.7355 493.971 98.7355ZM494.021 77.884C492.45 77.884 491.064 78.3351 489.861 79.2373C488.658 80.1061 487.889 81.4428 487.555 83.2472H499.936C499.835 81.6099 499.234 80.3066 498.131 79.3376C497.028 78.3685 495.658 77.884 494.021 77.884ZM515.306 69.4131C514.137 69.4131 513.168 69.0622 512.399 68.3605C511.664 67.6587 511.296 66.7732 511.296 65.7039C511.296 64.6346 511.664 63.7658 512.399 63.0974C513.168 62.3957 514.137 62.0448 515.306 62.0448C516.476 62.0448 517.428 62.3957 518.163 63.0974C518.932 63.7658 519.316 64.6346 519.316 65.7039C519.316 66.7732 518.932 67.6587 518.163 68.3605C517.428 69.0622 516.476 69.4131 515.306 69.4131ZM512.098 98.134V73.2726H518.514V98.134H512.098ZM535.486 98.7355C533.281 98.7355 531.343 98.3847 529.672 97.6829C528.001 96.9478 526.664 95.9453 525.662 94.6755C524.66 93.4057 524.058 91.9354 523.858 90.2646H530.324C530.524 91.2336 531.059 92.069 531.927 92.7708C532.83 93.4391 533.983 93.7733 535.386 93.7733C536.789 93.7733 537.809 93.4892 538.444 92.9212C539.112 92.3531 539.446 91.7015 539.446 90.9663C539.446 89.897 538.978 89.1786 538.043 88.811C537.107 88.41 535.804 88.0257 534.133 87.6581C533.064 87.4242 531.978 87.1402 530.875 86.806C529.772 86.4719 528.753 86.0542 527.817 85.5529C526.915 85.0183 526.18 84.35 525.612 83.548C525.044 82.7126 524.76 81.6934 524.76 80.4904C524.76 78.285 525.629 76.4304 527.366 74.9267C529.137 73.423 531.61 72.6711 534.785 72.6711C537.725 72.6711 540.064 73.3561 541.802 74.7262C543.573 76.0962 544.626 77.9842 544.96 80.3902H538.895C538.527 78.5523 537.14 77.6334 534.734 77.6334C533.531 77.6334 532.596 77.8673 531.927 78.3351C531.293 78.8029 530.975 79.3877 530.975 80.0894C530.975 80.8246 531.46 81.4094 532.429 81.8438C533.398 82.2782 534.684 82.6792 536.288 83.0467C538.026 83.4477 539.613 83.8989 541.05 84.4001C542.52 84.8679 543.69 85.5864 544.559 86.5554C545.427 87.4911 545.862 88.8444 545.862 90.6155C545.895 92.1526 545.494 93.5393 544.659 94.7757C543.824 96.0121 542.621 96.9812 541.05 97.6829C539.479 98.3847 537.625 98.7355 535.486 98.7355ZM562.623 98.134C560.016 98.134 557.928 97.4991 556.357 96.2293C554.787 94.9595 554.002 92.7039 554.002 89.4626V78.6358H549.741V73.2726H554.002L554.753 66.6061H560.417V73.2726H567.134V78.6358H560.417V89.5127C560.417 90.7157 560.668 91.5511 561.169 92.0189C561.704 92.4533 562.606 92.6705 563.876 92.6705H566.984V98.134H562.623Z" fill="#E8ECF2"/>
<path d="M250.857 119.296C246.979 119.296 243.828 118.219 241.405 116.065C239.035 113.964 237.85 110.813 237.85 106.612C237.85 104.78 237.984 103.111 238.254 101.603C238.523 100.095 238.792 98.5864 239.062 97.0783C239.385 95.5163 239.546 93.7388 239.546 91.7459C239.546 89.8608 238.954 88.1372 237.769 86.5752C236.638 85.0132 234.51 83.9629 231.386 83.4243V76.5569C234.51 76.0183 236.638 74.9949 237.769 73.4868C238.954 71.9248 239.546 70.1743 239.546 68.2353C239.546 66.2424 239.385 64.4919 239.062 62.9837C238.792 61.4217 238.523 59.8867 238.254 58.3785C237.984 56.8704 237.85 55.2007 237.85 53.3694C237.85 49.1682 239.035 46.0173 241.405 43.9166C243.828 41.7622 246.979 40.6849 250.857 40.6849H255.543V47.8755H252.392C250.292 47.8755 248.703 48.3872 247.626 49.4106C246.602 50.3801 246.091 51.969 246.091 54.1773C246.091 55.6855 246.225 57.1397 246.494 58.5401C246.764 59.9405 247.033 61.4487 247.302 63.0645C247.572 64.6265 247.706 66.4578 247.706 68.5584C247.706 71.3592 247.006 73.783 245.606 75.8298C244.205 77.8765 241.943 79.25 238.819 79.9502V80.1118C241.943 80.7581 244.205 82.1047 245.606 84.1514C247.006 86.1982 247.706 88.6489 247.706 91.5036C247.706 93.5503 247.572 95.3816 247.302 96.9975C247.033 98.5595 246.764 100.068 246.494 101.522C246.225 102.922 246.091 104.35 246.091 105.804C246.091 108.012 246.602 109.601 247.626 110.571C248.703 111.594 250.292 112.106 252.392 112.106H255.543V119.296H250.857Z" fill="#E8ECF2"/>
<path d="M314.134 119.296C318.012 119.296 321.163 118.219 323.587 116.065C325.957 113.964 327.142 110.813 327.142 106.612C327.142 104.78 327.007 103.111 326.738 101.603C326.468 100.095 326.199 98.5864 325.93 97.0783C325.606 95.5163 325.445 93.7388 325.445 91.7459C325.445 89.8608 326.037 88.1372 327.222 86.5752C328.353 85.0132 330.481 83.9629 333.605 83.4243V76.5569C330.481 76.0183 328.353 74.9949 327.222 73.4868C326.037 71.9248 325.445 70.1743 325.445 68.2353C325.445 66.2424 325.606 64.4919 325.93 62.9837C326.199 61.4217 326.468 59.8867 326.738 58.3785C327.007 56.8704 327.142 55.2007 327.142 53.3694C327.142 49.1682 325.957 46.0173 323.587 43.9166C321.163 41.7622 318.012 40.6849 314.134 40.6849H309.448V47.8755H312.599C314.699 47.8755 316.288 48.3872 317.366 49.4106C318.389 50.3801 318.901 51.969 318.901 54.1773C318.901 55.6855 318.766 57.1397 318.497 58.5401C318.227 59.9405 317.958 61.4487 317.689 63.0645C317.42 64.6265 317.285 66.4578 317.285 68.5584C317.285 71.3592 317.985 73.783 319.385 75.8298C320.786 77.8765 323.048 79.25 326.172 79.9502V80.1118C323.048 80.7581 320.786 82.1047 319.385 84.1514C317.985 86.1982 317.285 88.6489 317.285 91.5036C317.285 93.5503 317.42 95.3816 317.689 96.9975C317.958 98.5595 318.227 100.068 318.497 101.522C318.766 102.922 318.901 104.35 318.901 105.804C318.901 108.012 318.389 109.601 317.366 110.571C316.288 111.594 314.699 112.106 312.599 112.106H309.448V119.296H314.134Z" fill="#E8ECF2"/>
</svg>
