<svg width="801" height="161" viewBox="0 0 801 161" fill="none" xmlns="http://www.w3.org/2000/svg">
<rect x="0.59436" y="0.128418" width="800" height="160" rx="16" fill="#0D1117"/>
<mask id="mask0_8_61" style="mask-type:alpha" maskUnits="userSpaceOnUse" x="352" y="42" width="97" height="75">
<rect x="352.516" y="42.9508" width="96.1557" height="73.9659" fill="#D9D9D9"/>
</mask>
<g mask="url(#mask0_8_61)">
<path fill-rule="evenodd" clip-rule="evenodd" d="M389.109 71.0197L381.005 79.1235C377.843 82.2854 377.843 87.4118 381.005 90.5736L390.761 100.33C393.923 103.491 399.049 103.491 402.211 100.33L422.512 80.029L401.305 58.823L392.907 67.2218L386.511 60.8267C385.463 59.7779 383.762 59.7779 382.714 60.8267C381.665 61.8754 381.665 63.5758 382.714 64.6246L389.109 71.0197ZM392.925 74.8364L384.822 82.9402C383.768 83.9942 383.768 85.703 384.822 86.7569L394.578 96.5129C395.632 97.5668 397.34 97.5668 398.394 96.5129L414.878 80.029L401.305 66.4564L396.723 71.0385L400.879 75.1946L397.081 78.9924L392.925 74.8364Z" fill="#E8ECF2"/>
<path opacity="0.22" d="M410.047 84.8605L398.394 96.5129C397.34 97.5668 395.632 97.5668 394.578 96.5129L384.822 86.7569C384.298 86.233 384.034 85.5472 384.031 84.8605L410.047 84.8605Z" fill="#E8ECF2"/>
<path opacity="0.22" d="M425.892 93.9978C425.892 95.8234 424.344 97.3033 422.434 97.3033C420.525 97.3033 418.977 95.8234 418.977 93.9978C418.977 91.5188 422.434 86.9738 422.434 86.9738C422.434 86.9738 425.892 91.5188 425.892 93.9978Z" fill="#E8ECF2"/>
<path d="M370.777 116.899C367.129 116.899 364.165 115.886 361.885 113.859C359.655 111.883 358.541 108.919 358.541 104.967C358.541 103.244 358.667 101.674 358.921 100.255C359.174 98.8364 359.427 97.4177 359.681 95.999C359.985 94.5297 360.137 92.8577 360.137 90.983C360.137 89.2097 359.579 87.5883 358.465 86.119C357.401 84.6497 355.399 83.6617 352.461 83.155V76.695C355.399 76.1883 357.401 75.2256 358.465 73.8069C359.579 72.3376 360.137 70.6909 360.137 68.8669C360.137 66.9922 359.985 65.3456 359.681 63.9269C359.427 62.4576 359.174 61.0136 358.921 59.5949C358.667 58.1762 358.541 56.6055 358.541 54.8829C358.541 50.9308 359.655 47.9668 361.885 45.9908C364.165 43.9641 367.129 42.9508 370.777 42.9508H375.185V49.7148H372.221C370.245 49.7148 368.75 50.1962 367.737 51.1588C366.774 52.0708 366.293 53.5655 366.293 55.6429C366.293 57.0615 366.419 58.4295 366.673 59.7469C366.926 61.0642 367.179 62.4829 367.433 64.0029C367.686 65.4722 367.813 67.1949 367.813 69.1709C367.813 71.8056 367.154 74.0856 365.837 76.011C364.519 77.9363 362.391 79.2283 359.453 79.887V80.039C362.391 80.647 364.519 81.9136 365.837 83.839C367.154 85.7643 367.813 88.0697 367.813 90.755C367.813 92.6804 367.686 94.403 367.433 95.923C367.179 97.3924 366.926 98.8111 366.673 100.179C366.419 101.496 366.293 102.839 366.293 104.207C366.293 106.284 366.774 107.779 367.737 108.691C368.75 109.654 370.245 110.135 372.221 110.135H375.185V116.899H370.777Z" fill="#E8ECF2"/>
<path d="M430.3 116.899C433.948 116.899 436.912 115.886 439.192 113.859C441.421 111.883 442.536 108.919 442.536 104.967C442.536 103.244 442.409 101.674 442.156 100.255C441.903 98.8364 441.649 97.4177 441.396 95.999C441.092 94.5297 440.94 92.8577 440.94 90.983C440.94 89.2097 441.497 87.5883 442.612 86.119C443.676 84.6497 445.677 83.6617 448.616 83.155V76.695C445.677 76.1883 443.676 75.2256 442.612 73.8069C441.497 72.3376 440.94 70.6909 440.94 68.8669C440.94 66.9922 441.092 65.3456 441.396 63.9269C441.649 62.4576 441.903 61.0136 442.156 59.5949C442.409 58.1762 442.536 56.6055 442.536 54.8829C442.536 50.9308 441.421 47.9668 439.192 45.9908C436.912 43.9641 433.948 42.9508 430.3 42.9508H425.892V49.7148H428.856C430.832 49.7148 432.327 50.1962 433.34 51.1588C434.303 52.0708 434.784 53.5655 434.784 55.6429C434.784 57.0615 434.657 58.4295 434.404 59.7469C434.151 61.0642 433.897 62.4829 433.644 64.0029C433.391 65.4722 433.264 67.1949 433.264 69.1709C433.264 71.8056 433.923 74.0856 435.24 76.011C436.557 77.9363 438.685 79.2283 441.624 79.887V80.039C438.685 80.647 436.557 81.9136 435.24 83.839C433.923 85.7643 433.264 88.0697 433.264 90.755C433.264 92.6804 433.391 94.403 433.644 95.923C433.897 97.3924 434.151 98.8111 434.404 100.179C434.657 101.496 434.784 102.839 434.784 104.207C434.784 106.284 434.303 107.779 433.34 108.691C432.327 109.654 430.832 110.135 428.856 110.135H425.892V116.899H430.3Z" fill="#E8ECF2"/>
</g>
</svg>
